<svg xmlns="http://www.w3.org/2000/svg" xmlns:xlink="http://www.w3.org/1999/xlink" contentStyleType="text/css" height="204px" preserveAspectRatio="none" style="width:147px;height:204px;background:#FFFFFF;" version="1.1" viewBox="0 0 147 204" width="147px" zoomAndPan="magnify"><defs/><g><ellipse cx="73.8311" cy="20" fill="#222222" rx="10" ry="10" style="stroke:#222222;stroke-width:1.0;"/><rect fill="#F1F1F1" height="33.9688" rx="12.5" ry="12.5" style="stroke:#181818;stroke-width:0.5;" width="87.2715" x="30.1953" y="50"/><text fill="#000000" font-family="sans-serif" font-size="12" lengthAdjust="spacing" textLength="67.2715" x="40.1953" y="71.1387">Hello world</text><rect fill="#F1F1F1" height="47.9375" rx="12.5" ry="12.5" style="stroke:#181818;stroke-width:0.5;" width="125.6621" x="11" y="103.9688"/><text fill="#000000" font-family="sans-serif" font-size="12" lengthAdjust="spacing" textLength="105.6621" x="21" y="125.1074">This is defined on</text><text fill="#000000" font-family="sans-serif" font-size="12" lengthAdjust="spacing" textLength="43.7402" x="21" y="139.0762">several</text><text fill="#000000" font-family="sans-serif" font-size="12" font-weight="bold" lengthAdjust="spacing" textLength="32.0508" x="68.5547" y="139.0762">lines</text><ellipse cx="73.8311" cy="182.9063" fill="none" rx="11" ry="11" style="stroke:#222222;stroke-width:1.0;"/><ellipse cx="73.8311" cy="182.9063" fill="#222222" rx="6" ry="6" style="stroke:#222222;stroke-width:1.0;"/><line style="stroke:#181818;stroke-width:1.0;" x1="73.8311" x2="73.8311" y1="30" y2="50"/><polygon fill="#181818" points="69.8311,40,73.8311,50,77.8311,40,73.8311,44" style="stroke:#181818;stroke-width:1.0;"/><line style="stroke:#181818;stroke-width:1.0;" x1="73.8311" x2="73.8311" y1="83.9688" y2="103.9688"/><polygon fill="#181818" points="69.8311,93.9688,73.8311,103.9688,77.8311,93.9688,73.8311,97.9688" style="stroke:#181818;stroke-width:1.0;"/><line style="stroke:#181818;stroke-width:1.0;" x1="73.8311" x2="73.8311" y1="151.9063" y2="171.9063"/><polygon fill="#181818" points="69.8311,161.9063,73.8311,171.9063,77.8311,161.9063,73.8311,165.9063" style="stroke:#181818;stroke-width:1.0;"/><!--SRC=[Aov9B2hXil98pSd9LoZFByf9iUQo2id8B5O0efJKjCoyr1I5_3okujIorAB470KjhHoWKB6MbZLNSKb-0G00]--></g></svg>